<svg width="73" height="77" viewBox="0 0 73 77" fill="none" xmlns="http://www.w3.org/2000/svg">
<rect width="73" height="77" rx="3" fill="black"/>
<path d="M48.0993 48.4863L47.1838 48.6566L47.8315 49.3256L71.1722 73.4374V73.6487H54.5024L22.5437 38.7831H37.3361H41.0969H41.111L41.125 38.7823C45.4496 38.539 48.5972 37.021 50.6636 34.8183C52.7262 32.6197 53.6743 29.7784 53.6743 26.9532C53.6743 23.992 52.6062 21.0166 50.3265 18.7812C48.0433 16.5423 44.5864 15.0861 39.8834 15.0861H3.5V3.50006C9.47936 3.50138 15.4589 3.52613 21.4396 3.55089L21.4401 3.55089C27.5866 3.57633 33.7342 3.60178 39.882 3.60179C48.9164 3.65233 55.7668 6.43511 60.3534 10.6752C64.9405 14.9157 67.2953 20.6421 67.2953 26.6486C67.2953 31.4403 66.097 36.2226 63.1192 40.1367C60.1463 44.0441 55.3633 47.1349 48.0993 48.4863Z" fill="white" stroke="#28BD8C"/>
<path d="M24.1763 61.7995H17.7153V3.13516H2.90802V18.5165V25.7051V73.9487V74.182H3.04121H17.7153H24.1763H24.357H38.7967H47.3439L35.9936 61.7995H24.1763Z" fill="#18965F"/>
</svg>
