<svg fill="#000000" xmlns="http://www.w3.org/2000/svg"  viewBox="0 0 50 50" width="50px" height="50px"><path d="M 11.431641 10 C 6.2226406 10 2 14.058453 2 19.064453 C 2 23.222115 4.9125297 26.721518 8.8828125 27.791016 C 8.3215367 29.669243 8 31.884175 8 34.5 C 8 37.292 9.369 42 14.5 42 C 18.200462 42 19.458374 39.427773 19.863281 36.654297 C 20.412269 36.820198 21.264032 37 22.498047 37 C 23.831413 37 24.810108 36.698276 25.388672 36.46875 C 25.989575 39.846569 27.528288 43 31.5 43 C 35.813 43 38 40.813 38 36.5 C 38 36.142173 37.942269 31.96649 36.359375 27.673828 C 37.094372 27.835157 37.985048 28 38.636719 28 C 43.808719 28 48 23.971 48 19 C 48 14.029 43.808719 10 38.636719 10 C 33.494777 10 29.323725 14.306339 29.275391 19.240234 C 27.625356 18.465676 25.669419 18 23.335938 18 C 22.518176 18 21.667839 18.043962 20.808594 18.144531 C 20.327516 13.570943 16.316897 10 11.431641 10 z M 11.8125 12.693359 C 15.289188 12.693359 18.122788 15.318324 18.298828 18.617188 C 15.081707 19.462729 11.986005 21.31522 10.042969 24.945312 C 7.3151355 24.203207 5.3125 21.799174 5.3125 18.939453 C 5.3125 15.489453 8.2225 12.693359 11.8125 12.693359 z M 37.962891 13 C 41.626891 13 44.597656 15.855953 44.597656 19.376953 C 44.597656 22.897953 41.626891 25.751953 37.962891 25.751953 C 37.002142 25.751953 36.095606 25.54624 35.271484 25.193359 C 34.347696 23.460468 33.104736 21.835735 31.449219 20.566406 C 31.373057 20.180298 31.328125 19.784953 31.328125 19.376953 C 31.328125 15.855953 34.298891 13 37.962891 13 z M 23.335938 19 C 36.845937 19 37 35.786 37 36.5 C 37 40.252 35.252 42 31.5 42 C 26.544137 42 26.058273 35.946806 26.009766 31.804688 C 27.305772 31.063185 27.908203 29.94558 27.908203 29.013672 C 27.908203 27.251672 25.756438 26.536156 24.898438 26.285156 C 24.048438 26.036156 22.245766 25.887016 20.009766 26.166016 C 18.021766 26.414016 15.988281 27.456219 15.988281 29.574219 C 15.988281 31.239185 17.283635 31.994849 18.980469 32.337891 C 18.976835 35.167899 19.442608 41 14.5 41 C 9.154 41 9 35.245 9 34.5 C 9 28.77 11.108938 19 23.335938 19 z M 25.013672 32.251953 C 25.035072 33.24721 25.095934 34.350852 25.236328 35.462891 C 24.824884 35.645545 23.853221 36 22.498047 36 C 21.146636 36 20.353489 35.784744 19.962891 35.644531 C 20.051294 34.52089 20.050741 33.437479 20.025391 32.496094 C 20.851669 32.584872 21.719557 32.61496 22.560547 32.615234 C 23.51541 32.615234 24.327545 32.478518 25.013672 32.251953 z"/></svg>